<svg width="11" height="14" viewBox="0 0 11 14" fill="none" xmlns="http://www.w3.org/2000/svg">
<g clip-path="url(#clip0_8206_3303)">
<path d="M6.28975 0.759898C6.31298 0.781558 6.33658 0.802862 6.36018 0.824154C6.97792 1.39172 7.3141 2.28155 7.33083 3.08864C7.33117 3.11847 7.33138 3.14828 7.33152 3.1781C7.33162 3.19434 7.3317 3.21057 7.3318 3.22729C7.33195 3.26159 7.33205 3.29587 7.33212 3.33017C7.33227 3.38124 7.33277 3.43231 7.33328 3.48338C7.33792 4.37511 7.04928 5.24513 6.4263 5.91899C6.41587 5.93081 6.40542 5.94263 6.39467 5.9548C6.33048 6.02713 6.26142 6.08885 6.18472 6.14901C6.17615 6.1558 6.1676 6.16261 6.15877 6.16962C6.02363 6.27677 5.88735 6.37321 5.73375 6.45569C5.72358 6.46122 5.71342 6.46677 5.70295 6.4725C5.26388 6.71076 4.78565 6.81531 4.28218 6.81315C4.26828 6.81312 4.25438 6.81308 4.24007 6.81305C4.0368 6.81227 3.83847 6.80801 3.63997 6.76237C3.61967 6.75778 3.61967 6.75778 3.59895 6.75312C3.13827 6.64612 2.72655 6.4287 2.38772 6.11258C2.37995 6.1054 2.37218 6.09821 2.36417 6.09081C2.305 6.03373 2.25417 5.97141 2.20318 5.90775C2.19573 5.8985 2.1883 5.88926 2.18063 5.87973C2.1624 5.85704 2.1442 5.83436 2.126 5.81165C2.12597 5.82895 2.12593 5.84622 2.12592 5.86404C2.12468 6.62555 2.12343 7.38707 2.12207 8.14857C2.12205 8.16009 2.12203 8.17161 2.12202 8.18348C2.12157 8.43381 2.12112 8.68412 2.12067 8.93445C2.12043 9.0572 2.12022 9.17994 2.12 9.3027C2.11998 9.31492 2.11995 9.32713 2.11993 9.33972C2.11922 9.73601 2.11857 10.1323 2.11793 10.5286C2.11728 10.9357 2.11657 11.3428 2.1158 11.7498C2.1157 11.8073 2.11558 11.8647 2.11548 11.9221C2.11547 11.9334 2.11543 11.9447 2.11542 11.9564C2.11508 12.1387 2.11478 12.321 2.11453 12.5034C2.11427 12.6864 2.11393 12.8695 2.11355 13.0526C2.11335 13.1519 2.11317 13.2512 2.11305 13.3504C2.11295 13.4412 2.11278 13.5319 2.11255 13.6227C2.11248 13.6556 2.11243 13.6886 2.11242 13.7216C2.1124 13.7661 2.11227 13.8106 2.11212 13.8551C2.11213 13.8682 2.11215 13.8813 2.11217 13.8947C2.11173 13.9829 2.11173 13.9829 2.09378 14C1.40284 14 0.711887 14 0 14C0 9.41545 0 4.83089 0 0.10741C0.696263 0.10741 1.39253 0.10741 2.10988 0.10741C2.10988 0.411022 2.10988 0.714636 2.10988 1.02745C2.1624 0.977451 2.20313 0.930634 2.24678 0.874109C2.63347 0.387234 3.22603 0.116406 3.8494 0.0274457C4.72998 -0.088187 5.6506 0.162616 6.28975 0.759898ZM2.51625 2.22177C2.1624 2.60936 2.06625 3.10856 2.1012 3.60883C2.13192 3.95451 2.2422 4.28642 2.48033 4.55426C2.48832 4.5641 2.49632 4.57391 2.50455 4.58403C2.72265 4.84165 3.05058 4.99502 3.38698 5.0543C3.80315 5.09605 4.1982 5.03383 4.53417 4.78512C4.54735 4.77472 4.56053 4.76433 4.57412 4.7536C4.59463 4.73754 4.59463 4.73754 4.61557 4.72115C4.94672 4.4498 5.12475 4.07371 5.17003 3.6649C5.17132 3.65352 5.1726 3.64215 5.17393 3.63044C5.2233 3.15422 5.13687 2.65329 4.81312 2.27482C4.77753 2.23605 4.74088 2.19887 4.70297 2.16216C4.69092 2.1505 4.67888 2.13883 4.66647 2.12682C4.36505 1.8522 3.98653 1.75506 3.57798 1.75813C3.16678 1.76686 2.79717 1.93548 2.51625 2.22177Z" fill="#18BCCA"/>
<path d="M4.70884 13.2401C4.68567 13.2184 4.66214 13.1971 4.63859 13.1758C4.02246 12.6083 3.68716 11.7184 3.67046 10.9114C3.67014 10.8815 3.66992 10.8517 3.66977 10.8219C3.66969 10.8057 3.66959 10.7894 3.66951 10.7727C3.66936 10.7384 3.66924 10.7041 3.66919 10.6698C3.66902 10.6188 3.66854 10.5677 3.66802 10.5166C3.66341 9.62489 3.95127 8.75487 4.57264 8.08101C4.58306 8.06919 4.59347 8.05737 4.60421 8.0452C4.66821 7.97287 4.73711 7.91115 4.81361 7.85099C4.82214 7.8442 4.83067 7.83739 4.83947 7.83038C4.97426 7.72323 5.11021 7.62679 5.26339 7.54431C5.27354 7.53878 5.28367 7.53323 5.29411 7.5275C5.73204 7.28924 6.20904 7.18469 6.71117 7.18685C6.72504 7.18689 6.73891 7.18692 6.75321 7.18695C6.95594 7.18773 7.15376 7.19199 7.35174 7.23764C7.37199 7.24222 7.37199 7.24222 7.39266 7.24688C7.85212 7.35388 8.26277 7.5713 8.60072 7.88743C8.60847 7.8946 8.61624 7.90179 8.62422 7.90919C8.68324 7.96627 8.73392 8.02859 8.78479 8.09226C8.79221 8.1015 8.79964 8.11074 8.80727 8.12027C8.82547 8.14296 8.84362 8.16564 8.86177 8.18835C8.86181 8.17105 8.86182 8.15378 8.86186 8.13596C8.86309 7.37445 8.86434 6.61293 8.86569 5.85143C8.86571 5.83991 8.86572 5.82839 8.86576 5.81652C8.86619 5.56619 8.86664 5.31588 8.86709 5.06555C8.86731 4.9428 8.86754 4.82006 8.86776 4.6973C8.86777 4.68508 8.86779 4.67287 8.86782 4.66028C8.86852 4.26399 8.86919 3.86769 8.86982 3.4714C8.87047 3.06431 8.87117 2.65723 8.87194 2.25017C8.87204 2.19273 8.87216 2.1353 8.87226 2.07787C8.87229 2.06658 8.87231 2.05526 8.87232 2.04362C8.87266 1.8613 8.87296 1.67897 8.87321 1.49664C8.87347 1.31356 8.87381 1.13048 8.87419 0.947409C8.87439 0.848124 8.87457 0.748838 8.87467 0.649551C8.87477 0.558819 8.87496 0.468086 8.87519 0.377355C8.87526 0.344375 8.87531 0.311396 8.87532 0.278416C8.87534 0.233898 8.87546 0.189379 8.87561 0.144861C8.87559 0.131789 8.87557 0.118718 8.87556 0.10525C8.87601 0.0170847 8.87601 0.0170844 8.89391 0C9.58306 0 10.2722 0 10.9822 0C10.9822 4.58456 10.9822 9.16911 10.9822 13.8926C10.2878 13.8926 9.59334 13.8926 8.87784 13.8926C8.87784 13.589 8.87784 13.2854 8.87784 12.9725C8.82546 13.0225 8.78484 13.0694 8.74129 13.1259C8.35562 13.6128 7.76459 13.8836 7.14284 13.9726C6.26456 14.0882 5.34632 13.8374 4.70884 13.2401ZM8.47252 11.7782C8.82546 11.3906 8.92137 10.8914 8.88649 10.3912C8.85586 10.0455 8.74587 9.71358 8.50836 9.44574C8.50039 9.43591 8.49242 9.42609 8.48421 9.41597C8.26666 9.15836 7.93959 9.00498 7.60406 8.9457C7.18897 8.90395 6.79494 8.96617 6.45986 9.21488C6.44671 9.22529 6.43357 9.23567 6.42002 9.2464C6.39954 9.26247 6.39954 9.26246 6.37866 9.27885C6.04837 9.5502 5.87081 9.92629 5.82564 10.3351C5.82436 10.3465 5.82307 10.3579 5.82176 10.3696C5.77252 10.8458 5.85872 11.3467 6.18162 11.7252C6.21712 11.7639 6.25367 11.8011 6.29151 11.8378C6.30351 11.8495 6.31552 11.8612 6.32791 11.8732C6.62854 12.1478 7.00607 12.2449 7.41356 12.2419C7.82369 12.2331 8.19234 12.0645 8.47252 11.7782Z" fill="white"/>
</g>
<defs>
<clipPath id="clip0_8206_3303">
<rect width="11" height="14" fill="white"/>
</clipPath>
</defs>
</svg>
