<svg width="21" height="27" viewBox="0 0 21 27" fill="none" xmlns="http://www.w3.org/2000/svg">
<g clip-path="url(#clip0_8115_434)">
<path d="M11.5789 1.46552C11.6216 1.50729 11.6651 1.54838 11.7085 1.58944C12.8457 2.68403 13.4646 4.40014 13.4954 5.95666C13.496 6.01419 13.4964 6.07169 13.4967 6.12918C13.4968 6.16051 13.497 6.19181 13.4972 6.22405C13.4975 6.2902 13.4976 6.35632 13.4978 6.42247C13.498 6.52096 13.499 6.61945 13.4999 6.71794C13.5084 8.43771 12.9771 10.1156 11.8302 11.4152C11.811 11.438 11.7918 11.4608 11.772 11.4843C11.6538 11.6237 11.5267 11.7428 11.3855 11.8588C11.3697 11.8719 11.354 11.885 11.3377 11.8986C11.089 12.1052 10.8381 12.2912 10.5553 12.4503C10.5366 12.4609 10.5179 12.4716 10.4986 12.4827C9.69033 12.9422 8.80995 13.1438 7.88311 13.1396C7.85752 13.1396 7.83193 13.1395 7.80558 13.1395C7.43138 13.138 7.06627 13.1297 6.70085 13.0417C6.66348 13.0329 6.66348 13.0329 6.62534 13.0239C5.77726 12.8175 5.01933 12.3982 4.39557 11.7885C4.38127 11.7747 4.36697 11.7608 4.35222 11.7466C4.2433 11.6365 4.14972 11.5163 4.05586 11.3935C4.04215 11.3757 4.02846 11.3579 4.01435 11.3395C3.98078 11.2957 3.94728 11.252 3.91377 11.2082C3.91371 11.2415 3.91365 11.2749 3.91362 11.3092C3.91135 12.7778 3.90905 14.2465 3.90653 15.7151C3.9065 15.7373 3.90647 15.7595 3.90644 15.7824C3.90561 16.2652 3.90478 16.7479 3.90395 17.2307C3.90352 17.4675 3.90313 17.7042 3.90273 17.9409C3.9027 17.9645 3.90263 17.988 3.9026 18.0123C3.90128 18.7766 3.90009 19.5409 3.89892 20.3052C3.89773 21.0903 3.89641 21.8753 3.895 22.6604C3.89481 22.7712 3.8946 22.8819 3.89441 22.9927C3.89438 23.0145 3.89432 23.0363 3.89429 23.0587C3.89368 23.4104 3.89312 23.762 3.89266 24.1136C3.89217 24.4667 3.89156 24.8198 3.89085 25.1729C3.89049 25.3643 3.89015 25.5558 3.88993 25.7473C3.88975 25.9223 3.88944 26.0972 3.88901 26.2723C3.88889 26.3359 3.8888 26.3995 3.88877 26.4631C3.88874 26.5489 3.88849 26.6348 3.88821 26.7206C3.88825 26.7458 3.88828 26.7711 3.88831 26.797C3.88751 26.967 3.88751 26.967 3.85446 27C2.58249 27 1.31052 27 0 27C0 18.1584 0 9.31672 0 0.207148C1.28176 0.207148 2.56352 0.207148 3.8841 0.207148C3.8841 0.792686 3.8841 1.37823 3.8841 1.98151C3.98078 1.88508 4.05577 1.79479 4.13612 1.68578C4.84797 0.746808 5.93883 0.224497 7.08639 0.052931C8.70747 -0.170075 10.4022 0.313617 11.5789 1.46552ZM4.63219 4.28484C3.98078 5.03234 3.80378 5.99507 3.86812 6.95989C3.92466 7.62655 4.12769 8.26666 4.56607 8.78322C4.58076 8.80218 4.59549 8.82111 4.61065 8.84063C5.01215 9.33746 5.61585 9.63326 6.23513 9.74758C7.00125 9.82809 7.7285 9.7081 8.34699 9.22845C8.37126 9.20838 8.39553 9.18835 8.42053 9.16767C8.4583 9.13668 8.4583 9.13668 8.49684 9.10507C9.10645 8.58177 9.4342 7.85645 9.51756 7.06802C9.51992 7.04608 9.52229 7.02414 9.52474 7.00156C9.61562 6.08313 9.4565 5.11705 8.86051 4.38716C8.795 4.31239 8.72753 4.24069 8.65773 4.16987C8.63555 4.14738 8.6134 4.12489 8.59054 4.10173C8.03566 3.5721 7.33884 3.38476 6.58674 3.39068C5.82976 3.40752 5.14933 3.73272 4.63219 4.28484Z" fill="#18BCCA"/>
<path d="M8.6681 25.5345C8.62545 25.4927 8.58213 25.4516 8.53878 25.4106C7.40453 24.316 6.78728 22.5999 6.75653 21.0433C6.75595 20.9858 6.75555 20.9283 6.75528 20.8708C6.75512 20.8395 6.75494 20.8082 6.75478 20.776C6.75451 20.7098 6.75429 20.6437 6.7542 20.5775C6.75389 20.479 6.753 20.3806 6.75205 20.2821C6.74355 18.5623 7.27349 16.8844 8.41737 15.5848C8.43655 15.562 8.45572 15.5392 8.47548 15.5157C8.5933 15.3763 8.72014 15.2572 8.86097 15.1412C8.87668 15.1281 8.89239 15.115 8.90859 15.1014C9.15671 14.8948 9.40698 14.7088 9.68898 14.5497C9.70766 14.5391 9.72632 14.5284 9.74553 14.5173C10.5517 14.0578 11.4298 13.8562 12.3542 13.8604C12.3797 13.8604 12.4053 13.8605 12.4316 13.8605C12.8048 13.862 13.169 13.8703 13.5334 13.9583C13.5707 13.9671 13.5707 13.9671 13.6088 13.9761C14.4546 14.1825 15.2106 14.6018 15.8327 15.2115C15.847 15.2253 15.8613 15.2392 15.876 15.2534C15.9846 15.3635 16.0779 15.4837 16.1716 15.6065C16.1852 15.6243 16.1989 15.6421 16.2129 15.6605C16.2464 15.7043 16.2799 15.748 16.3133 15.7918C16.3133 15.7585 16.3134 15.7251 16.3134 15.6908C16.3157 14.2222 16.318 12.7535 16.3205 11.2849C16.3205 11.2627 16.3205 11.2405 16.3206 11.2176C16.3214 10.7348 16.3222 10.2521 16.3231 9.76928C16.3235 9.53254 16.3239 9.29583 16.3243 9.05908C16.3243 9.03552 16.3244 9.01196 16.3244 8.98769C16.3257 8.2234 16.3269 7.45912 16.3281 6.69484C16.3293 5.90975 16.3306 5.12466 16.332 4.33961C16.3322 4.22885 16.3324 4.11808 16.3326 4.00732C16.3326 3.98554 16.3327 3.96372 16.3327 3.94127C16.3333 3.58965 16.3339 3.23801 16.3343 2.88637C16.3348 2.53329 16.3354 2.18022 16.3361 1.82715C16.3365 1.63567 16.3368 1.44419 16.337 1.25271C16.3372 1.07772 16.3375 0.902737 16.338 0.727756C16.3381 0.664152 16.3382 0.600549 16.3382 0.536945C16.3382 0.451089 16.3385 0.365232 16.3387 0.279376C16.3387 0.254165 16.3387 0.228956 16.3386 0.202982C16.3395 0.032949 16.3395 0.0329484 16.3724 0C17.6411 0 18.9098 0 20.2169 0C20.2169 8.84164 20.2169 17.6833 20.2169 26.7929C18.9384 26.7929 17.66 26.7929 16.3429 26.7929C16.3429 26.2073 16.3429 25.6218 16.3429 25.0185C16.2464 25.1149 16.1716 25.2052 16.0915 25.3142C15.3815 26.2532 14.2935 26.7755 13.1489 26.9471C11.532 27.1701 9.84165 26.6864 8.6681 25.5345ZM15.5967 22.7152C16.2464 21.9677 16.423 21.0049 16.3588 20.0401C16.3024 19.3735 16.0999 18.7333 15.6627 18.2168C15.648 18.1978 15.6333 18.1789 15.6182 18.1594C15.2177 17.6625 14.6156 17.3667 13.9979 17.2524C13.2338 17.1719 12.5084 17.2919 11.8916 17.7716C11.8674 17.7916 11.8432 17.8117 11.8182 17.8323C11.7805 17.8633 11.7805 17.8633 11.7421 17.8949C11.1341 18.4182 10.8072 19.1436 10.724 19.932C10.7217 19.9539 10.7193 19.9759 10.7169 19.9984C10.6262 20.9169 10.7849 21.883 11.3794 22.6128C11.4447 22.6876 11.512 22.7593 11.5816 22.8301C11.6037 22.8526 11.6259 22.8751 11.6487 22.8983C12.2021 23.4279 12.8971 23.6152 13.6472 23.6093C14.4023 23.5925 15.0809 23.2673 15.5967 22.7152Z" fill="#081F2F"/>
</g>
<defs>
<clipPath id="clip0_8115_434">
<rect width="20.25" height="27" fill="white"/>
</clipPath>
</defs>
</svg>
